HIERARCHY
ROOT Hips
{
	OFFSET 0.000000 0.000000 0.000000
	CHANNELS 6 Xposition Yposition Zposition Zrotation Yrotation Xrotation 
	JOINT LHipJoint
	{
		OFFSET 0.000000 0.000000 0.000000
		CHANNELS 3 Zrotation Yrotation Xrotation
		JOINT LeftUpLeg
		{
			OFFSET 1.363060 -1.794630 0.839290
			CHANNELS 3 Zrotation Yrotation Xrotation
			JOINT LeftLeg
			{
				OFFSET 2.448110 -6.726130 0.000000
				CHANNELS 3 Zrotation Yrotation Xrotation
				JOINT LeftFoot
				{
					OFFSET 2.562200 -7.039590 0.000000
					CHANNELS 3 Zrotation Yrotation Xrotation
					JOINT LeftToeBase
					{
						OFFSET 0.157640 -0.433110 2.322550
						CHANNELS 3 Zrotation Yrotation Xrotation
						End Site
						{
							OFFSET 0.000000 0.000000 0.000000
						}
					}
				}
			}
		}
	}
	JOINT RHipJoint
	{
		OFFSET 0.000000 0.000000 0.000000
		CHANNELS 3 Zrotation Yrotation Xrotation
		JOINT RightUpLeg
		{
			OFFSET -1.305520 -1.794630 0.839290
			CHANNELS 3 Zrotation Yrotation Xrotation
			JOINT RightLeg
			{
				OFFSET -2.542530 -6.985550 0.000000
				CHANNELS 3 Zrotation Yrotation Xrotation
				JOINT RightFoot
				{
					OFFSET -2.568260 -7.056230 0.000000
					CHANNELS 3 Zrotation Yrotation Xrotation
					JOINT RightToeBase
					{
						OFFSET -0.164730 -0.452590 2.363150
						CHANNELS 3 Zrotation Yrotation Xrotation
						End Site
						{
							OFFSET 0.000000 0.000000 0.000000
						}
					}
				}
			}
		}
	}
	JOINT LowerBack
	{
		OFFSET 0.000000 0.000000 0.000000
		CHANNELS 3 Zrotation Yrotation Xrotation
		JOINT Spine
		{
			OFFSET 0.028270 2.035590 -0.193380
			CHANNELS 3 Zrotation Yrotation Xrotation
			JOINT Spine1
			{
				OFFSET 0.056720 2.048850 -0.042750
				CHANNELS 3 Zrotation Yrotation Xrotation
				JOINT Neck
				{
					OFFSET 0.000000 0.000000 0.000000
					CHANNELS 3 Zrotation Yrotation Xrotation
					JOINT Neck1
					{
						OFFSET -0.054170 1.746240 0.172020
						CHANNELS 3 Zrotation Yrotation Xrotation
						JOINT Head
						{
							OFFSET 0.104070 1.761360 -0.123970
							CHANNELS 3 Zrotation Yrotation Xrotation
							End Site
							{
								OFFSET 0.000000 0.000000 0.000000
							}
						}
					}
				}
				JOINT LeftShoulder
				{
					OFFSET 0.000000 0.000000 0.000000
					CHANNELS 3 Zrotation Yrotation Xrotation
					JOINT LeftArm
					{
						OFFSET 3.362410 1.200890 -0.311210
						CHANNELS 3 Zrotation Yrotation Xrotation
						JOINT LeftForeArm
						{
							OFFSET 4.983000 -0.000000 -0.000000
							CHANNELS 3 Zrotation Yrotation Xrotation
							JOINT LeftHand
							{
								OFFSET 3.483560 -0.000000 -0.000000
								CHANNELS 3 Zrotation Yrotation Xrotation
								JOINT LeftFingerBase
								{
									OFFSET 0.000000 0.000000 0.000000
									CHANNELS 3 Zrotation Yrotation Xrotation
									JOINT LeftHandIndex1
									{
										OFFSET 0.715260 -0.000000 -0.000000
										CHANNELS 3 Zrotation Yrotation Xrotation
										End Site
										{
											OFFSET 0.000000 0.000000 0.000000
										}
									}
								}
								JOINT LThumb
								{
									OFFSET 0.000000 0.000000 0.000000
									CHANNELS 3 Zrotation Yrotation Xrotation
									End Site
									{
										OFFSET 0.000000 0.000000 0.000000
									}
								}
							}
						}
					}
				}
				JOINT RightShoulder
				{
					OFFSET 0.000000 0.000000 0.000000
					CHANNELS 3 Zrotation Yrotation Xrotation
					JOINT RightArm
					{
						OFFSET -3.136600 1.374050 -0.404650
						CHANNELS 3 Zrotation Yrotation Xrotation
						JOINT RightForeArm
						{
							OFFSET -5.241900 -0.000000 -0.000000
							CHANNELS 3 Zrotation Yrotation Xrotation
							JOINT RightHand
							{
								OFFSET -3.444170 -0.000000 -0.000000
								CHANNELS 3 Zrotation Yrotation Xrotation
								JOINT RightFingerBase
								{
									OFFSET 0.000000 0.000000 0.000000
									CHANNELS 3 Zrotation Yrotation Xrotation
									JOINT RightHandIndex1
									{
										OFFSET -0.622530 -0.000000 -0.000000
										CHANNELS 3 Zrotation Yrotation Xrotation
										End Site
										{
											OFFSET 0.000000 0.000000 0.000000
										}
									}
								}
								JOINT RThumb
								{
									OFFSET 0.000000 0.000000 0.000000
									CHANNELS 3 Zrotation Yrotation Xrotation
									End Site
									{
										OFFSET 0.000000 0.000000 0.000000
									}
								}
							}
						}
					}
				}
			}
		}
	}
}
MOTION
Frames: 9
Frame Time: 0.033333
0.234209 17.055471 0.234209 5.267049 12.418159 6.326914 -0.304764 25.857957 1.988339 -26.253813 -52.631723 -19.315512 -32.725875 -15.200569 69.239551 7.035452 -49.394643 40.094637 0.000000 0.000000 0.000000 -1.692360 -23.390417 14.984063 7.715922 12.273184 -21.584156 6.431827 -3.985556 20.056955 0.122848 11.747487 -22.420846 0.000000 0.000000 0.000000 6.850318 1.045728 -5.125064 -8.882375 1.051780 29.709831 -8.255409 0.257179 -23.528294 9.422043 -0.531401 -6.338378 1.438732 -0.091553 4.932938 0.000000 0.000000 0.000000 -7.638813 9.168158 6.109144 -62.549985 -9.414105 -0.757545 -32.585806 5.948475 -0.083181 -1.573876 -3.342574 -0.041650 -1.571032 -3.344240 0.000000 0.000000 0.000000 0.000000 0.000000 0.000000 0.000000 -11.757888 -15.712813 2.899555 85.647546 6.638269 4.659735 162.372379 69.401094 -179.984559 -2.929917 3.565682 0.006425 -2.942740 3.562585 0.000000 0.000000 0.000000 0.000000 0.000000 0.000000 0.000000 
0.236536 17.056963 0.229925 5.268162 12.776635 6.297854 -0.287510 25.988385 2.047899 -26.206877 -52.797074 -19.358920 -33.058528 -15.266869 69.267114 6.825573 -49.442794 40.482582 0.000000 0.000000 0.000000 -1.733147 -23.568314 14.946434 7.872194 12.289318 -21.659956 6.216548 -4.156277 20.466768 0.105048 11.675187 -22.403471 0.000000 0.000000 0.000000 6.912547 1.082479 -5.169866 -8.956885 1.097280 29.876760 -8.276978 0.251026 -23.646401 9.478662 -0.528486 -6.309174 1.452034 -0.089844 4.943089 0.000000 0.000000 0.000000 -7.803859 9.183789 6.134748 -62.457722 -9.350832 -0.803083 -32.333133 6.127718 -0.083989 -1.567283 -3.310445 -0.042052 -1.564509 -3.312077 0.000000 0.000000 0.000000 0.000000 0.000000 0.000000 0.000000 -11.679698 -15.760952 2.902597 85.575587 6.471335 4.700860 162.468808 69.416148 -179.984760 -2.943429 3.596553 0.006309 -2.956461 3.593366 0.000000 0.000000 0.000000 0.000000 0.000000 0.000000 0.000000 
0.238860 17.058573 0.225590 5.270891 13.149301 6.270201 -0.269100 26.118527 2.107619 -26.159908 -52.967585 -19.400843 -33.402364 -15.337818 69.291543 6.600988 -49.487782 40.886815 0.000000 0.000000 0.000000 -1.771495 -23.745549 14.908480 8.025545 12.302264 -21.734563 5.999775 -4.329852 20.874007 0.087978 11.593433 -22.381979 0.000000 0.000000 0.000000 6.973880 1.119397 -5.214601 -9.031503 1.142961 30.043226 -8.298402 0.244405 -23.763922 9.535960 -0.525714 -6.279454 1.465158 -0.088116 4.952867 0.000000 0.000000 0.000000 -7.969518 9.199092 6.160835 -62.363134 -9.286613 -0.846970 -32.082125 6.301589 -0.084748 -1.560766 -3.278781 -0.042430 -1.558060 -3.280379 0.000000 0.000000 0.000000 0.000000 0.000000 0.000000 0.000000 -11.601359 -15.809446 2.905669 85.503486 6.304329 4.741796 162.564949 69.431526 -179.984963 -2.956921 3.627585 0.006191 -2.970164 3.624309 0.000000 0.000000 0.000000 0.000000 0.000000 0.000000 0.000000 
0.241151 17.060316 0.221287 5.275130 13.535891 6.244098 -0.250113 26.248070 2.167357 -26.111735 -53.142431 -19.442159 -33.756962 -15.412895 69.313287 6.360913 -49.527997 41.308599 0.000000 0.000000 0.000000 -1.807015 -23.921740 14.870137 8.175606 12.312028 -21.808061 5.781822 -4.506491 21.278884 0.071729 11.501969 -22.356138 0.000000 0.000000 0.000000 7.034423 1.156502 -5.259428 -9.106196 1.188837 30.209223 -8.319686 0.237320 -23.880858 9.593937 -0.523091 -6.249212 1.478093 -0.086370 4.962273 0.000000 0.000000 0.000000 -8.135786 9.214077 6.187389 -62.266221 -9.221461 -0.889231 -31.832824 6.470212 -0.085459 -1.554324 -3.247565 -0.042784 -1.551686 -3.249130 0.000000 0.000000 0.000000 0.000000 0.000000 0.000000 0.000000 -11.522876 -15.858290 2.908774 85.431241 6.137244 4.782548 162.660809 69.447232 -179.985169 -2.970394 3.658781 0.006071 -2.983850 3.655413 0.000000 0.000000 0.000000 0.000000 0.000000 0.000000 0.000000 
0.243454 17.062190 0.216812 5.280958 13.936175 6.219416 -0.229627 26.377263 2.227233 -26.063701 -53.322836 -19.481701 -34.122794 -15.493441 69.331005 6.104260 -49.564048 41.747237 0.000000 0.000000 0.000000 -1.840445 -24.097114 14.831591 8.323129 12.318824 -21.880174 5.562319 -4.685252 21.679750 0.056423 11.400963 -22.325697 0.000000 0.000000 0.000000 7.094125 1.193752 -5.304220 -9.180951 1.234873 30.374763 -8.340818 0.229752 -23.997202 9.652602 -0.520620 -6.218446 1.490831 -0.084607 4.971303 0.000000 0.000000 0.000000 -8.302654 9.228741 6.214397 -62.166986 -9.155397 -0.929887 -31.585270 6.633699 -0.086124 -1.547958 -3.216778 -0.043115 -1.545386 -3.218310 0.000000 0.000000 0.000000 0.000000 0.000000 0.000000 0.000000 -11.444257 -15.907494 2.911919 85.358852 5.970087 4.823104 162.756380 69.463261 -179.985377 -2.983847 3.690135 0.005950 -2.997516 3.686677 0.000000 0.000000 0.000000 0.000000 0.000000 0.000000 0.000000 
0.240855 17.060785 0.207654 5.367266 14.355130 6.151493 0.062638 26.328993 2.326849 -26.629532 -53.562729 -18.927973 -34.207274 -15.847286 69.087276 5.838967 -49.844433 41.674255 0.000000 0.000000 0.000000 -1.939585 -24.202517 14.796950 8.421021 12.254922 -21.818239 5.461767 -4.855635 21.897269 0.044084 11.291750 -22.407528 0.000000 0.000000 0.000000 7.061240 1.174347 -5.419076 -9.263854 1.261849 30.766627 -8.476296 0.217855 -24.033227 9.821881 -0.514623 -6.557095 1.500075 -0.081214 4.943180 0.000000 0.000000 0.000000 -8.394077 9.199434 6.177050 -62.072895 -9.145059 -1.042879 -31.251658 6.818112 -0.088042 -1.539081 -3.173652 -0.044071 -1.536603 -3.175135 0.000000 0.000000 0.000000 0.000000 0.000000 0.000000 0.000000 -11.655915 -15.796711 3.001465 85.743250 6.491933 4.428954 162.454498 69.381521 -179.989271 -2.927544 3.548144 0.004033 -2.940792 3.544868 0.000000 0.000000 0.000000 0.000000 0.000000 0.000000 0.000000 
0.237954 17.059293 0.197984 5.460394 14.782802 6.084375 0.374692 26.263715 2.430417 -27.233254 -53.811032 -18.336237 -34.283031 -16.227462 68.817640 5.558808 -50.137030 41.578067 0.000000 0.000000 0.000000 -2.042038 -24.302149 14.759857 8.514669 12.184900 -21.747709 5.366921 -5.028103 22.103438 0.032475 11.176492 -22.493954 0.000000 0.000000 0.000000 7.021137 1.151781 -5.536302 -9.346419 1.287722 31.166565 -8.619424 0.205107 -24.063880 9.996057 -0.507556 -6.914819 1.510909 -0.077646 4.912882 0.000000 0.000000 0.000000 -8.482411 9.170591 6.135740 -61.974702 -9.135111 -1.155004 -30.917949 6.993496 -0.089892 -1.530162 -3.130736 -0.044994 -1.527778 -3.132171 0.000000 0.000000 0.000000 0.000000 0.000000 0.000000 0.000000 -11.882433 -15.677942 3.095115 86.146476 7.057394 4.017665 162.128984 69.305046 -179.993140 -2.866347 3.399949 0.002132 -2.879147 3.396866 0.000000 0.000000 0.000000 0.000000 0.000000 0.000000 0.000000 
0.234728 17.057664 0.187988 5.554519 15.221717 6.028983 0.706115 26.176603 2.525788 -27.872221 -54.065654 -17.710431 -34.348304 -16.633432 68.523000 5.265007 -50.440756 41.457591 0.000000 0.000000 0.000000 -2.137527 -24.392605 14.711737 8.604059 12.107514 -21.672895 5.278708 -5.205054 22.298677 0.021877 11.053919 -22.586802 0.000000 0.000000 0.000000 6.957077 1.123359 -5.618730 -9.390506 1.302558 31.500380 -8.781795 0.191075 -24.091706 10.176616 -0.501357 -7.291469 1.516235 -0.074915 4.898291 0.000000 0.000000 0.000000 -8.581978 9.153664 6.097822 -61.859469 -9.112558 -1.264032 -30.583227 7.167051 -0.091644 -1.521747 -3.087654 -0.045868 -1.519458 -3.089042 0.000000 0.000000 0.000000 0.000000 0.000000 0.000000 0.000000 -12.122266 -15.555609 3.196303 86.557682 7.646108 3.601713 161.783316 69.237227 -179.996703 -2.799405 3.246294 0.000388 -2.811708 3.243426 0.000000 0.000000 0.000000 0.000000 0.000000 0.000000 0.000000 
0.231458 17.056047 0.177609 5.650930 15.667763 5.977699 1.044761 26.079864 2.621805 -28.520345 -54.325919 -17.074753 -34.417183 -17.054465 68.213858 4.956199 -50.744911 41.336681 0.000000 0.000000 0.000000 -2.232618 -24.480498 14.660008 8.692436 12.027798 -21.596240 5.189870 -5.383950 22.490990 0.011969 10.926309 -22.679727 0.000000 0.000000 0.000000 6.888969 1.094639 -5.696133 -9.430743 1.316374 31.824281 -8.946782 0.176317 -24.119813 10.356890 -0.494389 -7.669418 1.522645 -0.072217 4.886042 0.000000 0.000000 0.000000 -8.683823 9.140782 6.059909 -61.738218 -9.085978 -1.368162 -30.252948 7.331320 -0.093259 -1.513477 -3.045305 -0.046673 -1.511281 -3.046647 0.000000 0.000000 0.000000 0.000000 0.000000 0.000000 0.000000 -12.361972 -15.434187 3.296803 86.963090 8.241670 3.192499 161.433027 69.181602 179.999992 -2.731090 3.095689 -0.001226 -2.742900 3.093035 0.000000 0.000000 0.000000 0.000000 0.000000 0.000000 0.000000 
